<?xml version="1.0" encoding="UTF-8"?>
<!DOCTYPE svg PUBLIC "-//W3C//DTD SVG 1.1//EN" "http://www.w3.org/Graphics/SVG/1.1/DTD/svg11.dtd">
<!-- Creator: CorelDRAW -->
<svg xmlns="http://www.w3.org/2000/svg" xml:space="preserve" width="2600px" height="500px" style="shape-rendering:geometricPrecision; text-rendering:geometricPrecision; image-rendering:optimizeQuality; fill-rule:evenodd; clip-rule:evenodd"
viewBox="0 0 2600 499.999"
 xmlns:xlink="http://www.w3.org/1999/xlink"
 version="1.1">
 <defs>
  <style type="text/css">
   <![CDATA[
    .fil7 {fill:black}
    .fil2 {fill:#845135}
    .fil1 {fill:#93603E}
    .fil6 {fill:#D1D3D3}
    .fil5 {fill:#E8E8E8}
    .fil4 {fill:#EF8F11}
    .fil3 {fill:#FFA92C}
    .fil0 {fill:#0093DD;fill-rule:nonzero}
   ]]>
  </style>
 </defs>
 <g id="Layer_x0020_1">
  <metadata id="CorelCorpID_0Corel-Layer"/>
  <path class="fil0" d="M467.505 341.439l0 -143.166 28.9004 0 0 143.166 -28.9004 0zm124.533 0l0 -15.5339c-3.80079,5.53347 -8.76733,9.90001 -14.9008,13.1008 -6.16654,3.16654 -12.6661,4.76693 -19.5,4.76693 -6.96615,0 -13.2,-1.53425 -18.7323,-4.56733 -5.53347,-3.06614 -9.53386,-7.36654 -12.0343,-12.9 -2.46614,-5.53347 -3.69921,-13.2 -3.69921,-22.9665l0 -65.5996 27.4335 0 0 47.6327c0,14.6008 0.499607,23.5335 1.53307,26.8335 0.999213,3.26693 2.83347,5.86654 5.49922,7.8 2.66693,1.93347 6.06733,2.86654 10.1669,2.86654 4.70079,0 8.90079,-1.26614 12.6,-3.83268 3.7004,-2.60079 6.23386,-5.76733 7.6004,-9.56693 1.36654,-3.83386 2.06693,-13.1669 2.06693,-28.0004l0 -43.7327 27.4323 0 0 103.7 -25.4658 0zm80.1662 0l-27.4335 0 0 -103.7 25.4669 0 0 14.7331c4.36654,-6.96615 8.29961,-11.5665 11.7661,-13.7669 3.49961,-2.19921 7.43386,-3.33307 11.8665,-3.33307 6.26693,0 12.2669,1.73386 18.0673,5.2004l-8.5004 23.8996c-4.6004,-2.96693 -8.89961,-4.46693 -12.8669,-4.46693 -3.86693,0 -7.09961,1.03347 -9.76654,3.16654 -2.7,2.1 -4.76693,5.93386 -6.3,11.4673 -1.53307,5.53347 -2.29961,17.1331 -2.29961,34.7658l0 32.0339zm51.567 -117.767l0 -25.3996 27.4335 0 0 25.3996 -27.4335 0zm0 117.767l0 -103.7 27.4335 0 0 103.7 -27.4335 0zm45.8988 -29.5996l27.5339 -4.2c1.16693,5.33268 3.53268,9.39922 7.13268,12.1665 3.56693,2.76614 8.56654,4.16693 15.0343,4.16693 7.09961,0 12.4323,-1.30039 15.9992,-3.93425 2.43307,-1.8 3.63307,-4.26614 3.63307,-7.29922 0,-2.1 -0.666142,-3.83386 -1.96654,-5.2004 -1.36654,-1.30039 -4.43268,-2.5004 -9.16654,-3.6 -22.1327,-4.86614 -36.1666,-9.33308 -42.0992,-13.3665 -8.2004,-5.59961 -12.3,-13.3996 -12.3,-23.3669 0,-8.96693 3.53268,-16.5331 10.6335,-22.6335 7.09961,-6.13229 18.0992,-9.19961 32.9988,-9.19961 14.2004,0 24.7677,2.33386 31.6677,6.93308 6.9,4.63347 11.6327,11.4673 14.2323,20.5335l-25.8662 4.76693c-1.09961,-4.03347 -3.19961,-7.13386 -6.3,-9.26693 -3.1004,-2.16614 -7.5,-3.23268 -13.2331,-3.23268 -7.23308,0 -12.4004,0.999213 -15.5339,3.03307 -2.06693,1.43268 -3.09921,3.3 -3.09921,5.56654 0,1.96654 0.900001,3.6 2.73307,4.96654 2.46614,1.83307 10.9996,4.39961 25.6335,7.73386 14.5996,3.3 24.7996,7.36654 30.6,12.1996 5.73307,4.9004 8.59961,11.7 8.59961,20.4 0,9.49961 -3.96614,17.7 -11.9339,24.5327 -7.93229,6.83386 -19.6665,10.2343 -35.2323,10.2343 -14.1343,0 -25.3004,-2.86772 -33.5669,-8.60079 -8.23347,-5.7 -13.6004,-13.5 -16.1339,-23.3327zm212.7 -23.0339l27.9992 8.86654c-4.29922,15.6331 -11.4331,27.2339 -21.4335,34.8331 -9.96615,7.56733 -22.6665,11.3669 -38.0327,11.3669 -19.0004,0 -34.6335,-6.49961 -46.8662,-19.4669 -12.2339,-12.9992 -18.3673,-30.7666 -18.3673,-53.2666 0,-23.8323 6.16654,-42.3331 18.4665,-55.5331 12.3,-13.1658 28.4669,-19.7658 48.5339,-19.7658 17.4992,0 31.7327,5.16614 42.6662,15.5327 6.53386,6.1004 11.4,14.8996 14.6669,26.3669l-28.6335 6.83268c-1.66654,-7.43268 -5.2004,-13.2992 -10.6004,-17.5996 -5.36575,-4.3004 -11.8996,-6.43347 -19.5662,-6.43347 -10.6004,0 -19.2331,3.80079 -25.8331,11.4331 -6.6,7.6004 -9.90001,19.9335 -9.90001,37.0004 0,18.1004 3.23268,31.0004 9.76654,38.667 6.49961,7.69961 14.9669,11.5335 25.3666,11.5335 7.69961,0 14.2996,-2.43425 19.8331,-7.33347 5.53347,-4.86733 9.49961,-12.5669 11.9339,-23.0339zm46.2662 -0.699213c0,-9.1004 2.26654,-17.9339 6.73347,-26.4673 4.5,-8.5004 10.8673,-15.0331 19.0996,-19.5 8.23347,-4.5 17.4343,-6.76654 27.6,-6.76654 15.6673,0 28.5343,5.1 38.5677,15.3 10.0323,10.2 15.0331,23.0669 15.0331,38.6339 0,15.6662 -5.06693,28.6666 -15.1665,38.9988 -10.1339,10.3335 -22.8673,15.4677 -38.2335,15.4677 -9.53386,0 -18.5669,-2.13425 -27.2008,-6.43347 -8.63268,-4.3004 -15.1996,-10.6004 -19.6996,-18.9 -4.46693,-8.30079 -6.73347,-18.4004 -6.73347,-30.3331zm28.1339 1.46575c0,10.3004 2.43307,18.1665 7.33347,23.6339 4.86614,5.46615 10.8992,8.19922 18.0662,8.19922 7.16693,0 13.1669,-2.73307 18,-8.19922 4.86733,-5.46733 7.3004,-13.3996 7.3004,-23.8335 0,-10.1339 -2.43307,-17.9669 -7.3004,-23.4331 -4.83307,-5.46733 -10.8331,-8.2004 -18,-8.2004 -7.16693,0 -13.2,2.73307 -18.0662,8.2004 -4.9004,5.46615 -7.33347,13.3665 -7.33347,23.6327zm194.732 51.867l-27.4323 0 0 -52.9335c0,-11.1992 -0.6,-18.4335 -1.76693,-21.7335 -1.16693,-3.26575 -3.1004,-5.83347 -5.73307,-7.66654 -2.63386,-1.8 -5.8004,-2.73307 -9.50079,-2.73307 -4.76575,0 -9.03308,1.30039 -12.7996,3.9 -3.76654,2.63386 -6.36615,6.06615 -7.76693,10.3665 -1.39961,4.3004 -2.1,12.2339 -2.1,23.8335l0 46.9666 -27.4335 0 0 -103.7 25.4669 0 0 15.2327c9.06733,-11.7331 20.4673,-17.5996 34.2,-17.5996 6.03307,0 11.5996,1.09961 16.6004,3.26693 4.99961,2.19921 8.79922,4.96654 11.3658,8.36693 2.56772,3.39921 4.36772,7.23308 5.36693,11.5323 1.03347,4.3004 1.53307,10.4339 1.53307,18.4335l0 64.467zm18.1665 -29.5996l27.5339 -4.2c1.16693,5.33268 3.53268,9.39922 7.13268,12.1665 3.56693,2.76614 8.56654,4.16693 15.0343,4.16693 7.09961,0 12.4323,-1.30039 15.9992,-3.93425 2.43307,-1.8 3.63307,-4.26614 3.63307,-7.29922 0,-2.1 -0.666142,-3.83386 -1.96654,-5.2004 -1.36654,-1.30039 -4.43268,-2.5004 -9.16654,-3.6 -22.1327,-4.86614 -36.1666,-9.33308 -42.0992,-13.3665 -8.2004,-5.59961 -12.3,-13.3996 -12.3,-23.3669 0,-8.96693 3.53268,-16.5331 10.6335,-22.6335 7.09961,-6.13229 18.0992,-9.19961 32.9988,-9.19961 14.2004,0 24.7677,2.33386 31.6677,6.93308 6.9,4.63347 11.6327,11.4673 14.2323,20.5335l-25.8662 4.76693c-1.09961,-4.03347 -3.19961,-7.13386 -6.3,-9.26693 -3.1004,-2.16614 -7.5,-3.23268 -13.2331,-3.23268 -7.23308,0 -12.4004,0.999213 -15.5339,3.03307 -2.06693,1.43268 -3.09921,3.3 -3.09921,5.56654 0,1.96654 0.900001,3.6 2.73307,4.96654 2.46614,1.83307 10.9996,4.39961 25.6335,7.73386 14.5996,3.3 24.7996,7.36654 30.6,12.1996 5.73307,4.9004 8.59961,11.7 8.59961,20.4 0,9.49961 -3.96614,17.7 -11.9339,24.5327 -7.93229,6.83386 -19.6665,10.2343 -35.2323,10.2343 -14.1343,0 -25.3004,-2.86772 -33.5669,-8.60079 -8.23347,-5.7 -13.6004,-13.5 -16.1339,-23.3327zm189.167 29.5996l0 -15.5339c-3.80079,5.53347 -8.76733,9.90001 -14.9008,13.1008 -6.16654,3.16654 -12.6661,4.76693 -19.5,4.76693 -6.96615,0 -13.2,-1.53425 -18.7323,-4.56733 -5.53347,-3.06614 -9.53386,-7.36654 -12.0343,-12.9 -2.46614,-5.53347 -3.69921,-13.2 -3.69921,-22.9665l0 -65.5996 27.4335 0 0 47.6327c0,14.6008 0.499607,23.5335 1.53307,26.8335 0.999213,3.26693 2.83347,5.86654 5.49922,7.8 2.66693,1.93347 6.06733,2.86654 10.1669,2.86654 4.70079,0 8.90079,-1.26614 12.6,-3.83268 3.7004,-2.60079 6.23386,-5.76733 7.6004,-9.56693 1.36654,-3.83386 2.06693,-13.1669 2.06693,-28.0004l0 -43.7327 27.4323 0 0 103.7 -25.4658 0zm53.8996 0l0 -143.166 27.4335 0 0 143.166 -27.4335 0zm103.1 -103.7l0 21.8669 -18.7335 0 0 41.7992c0,8.46733 0.166536,13.3996 0.532677,14.8004 0.367323,1.39961 1.16693,2.53347 2.43307,3.46654 1.26732,0.900001 2.83347,1.36654 4.63347,1.36654 2.56654,0 6.23386,-0.900001 11.0669,-2.63386l2.33386 21.2669c-6.4004,2.73307 -13.6004,4.10079 -21.7004,4.10079 -4.93347,0 -9.4004,-0.833859 -13.3665,-2.46732 -3.96614,-1.66654 -6.86693,-3.83268 -8.73308,-6.46654 -1.86732,-2.63386 -3.13347,-6.19961 -3.86693,-10.6996 -0.566929,-3.16654 -0.86693,-9.63426 -0.86693,-19.3335l0 -45.1996 -12.6 0 0 -21.8669 12.6 0 0 -20.6339 27.5339 -15.9992 0 36.6331 18.7335 0zm39.5658 31.6335l-24.9 -4.5c2.8004,-10.0335 7.6004,-17.4343 14.4343,-22.2673 6.86575,-4.8 16.9996,-7.23308 30.4666,-7.23308 12.2658,0 21.3662,1.46693 27.3662,4.36654 5.96693,2.89961 10.2,6.56693 12.6331,11.0339 2.43425,4.46575 3.66733,12.6331 3.66733,24.5658l-0.3 32.0339c0,9.1004 0.433465,15.8327 1.33347,20.1662 0.865749,4.3004 2.53228,8.96693 4.93229,13.9004l-27.1666 0c-0.699213,-1.83307 -1.59921,-4.53307 -2.63268,-8.1 -0.433465,-1.63347 -0.766536,-2.7 -0.967323,-3.23386 -4.69961,4.56733 -9.69922,7.96772 -15.0331,10.2673 -5.33268,2.26654 -11.0327,3.4004 -17.1,3.4004 -10.6665,0 -19.0996,-2.90079 -25.2331,-8.66693 -6.16654,-5.8004 -9.23268,-13.1339 -9.23268,-22.0004 0,-5.83347 1.39961,-11.0669 4.2,-15.6662 2.79921,-4.6004 6.73229,-8.1 11.7661,-10.5331 5.03386,-2.43425 12.3331,-4.56733 21.8327,-6.4004 12.8008,-2.4 21.7004,-4.66654 26.6339,-6.73347l0 -2.73307c0,-5.30079 -1.30039,-9.03308 -3.9,-11.3008 -2.59961,-2.23228 -7.5,-3.36614 -14.7331,-3.36614 -4.9004,0 -8.70001,0.966142 -11.4331,2.89961 -2.73425,1.90039 -4.93347,5.26654 -6.63426,10.1008zm36.7004 22.2662c-3.49961,1.16693 -9.06615,2.56654 -16.6996,4.2 -7.6004,1.63347 -12.5669,3.23386 -14.9339,4.76693 -3.56693,2.56654 -5.36693,5.76615 -5.36693,9.66615 0,3.86693 1.43386,7.16693 4.3004,9.96733 2.86654,2.79921 6.49961,4.2 10.9335,4.2 4.96654,0 9.66615,-1.63347 14.1662,-4.86733 3.33425,-2.46614 5.5004,-5.49922 6.53386,-9.09922 0.733465,-2.33386 1.06654,-6.80079 1.06654,-13.3665l0 -5.46733zm44.3658 20.2004l27.5339 -4.2c1.16693,5.33268 3.53268,9.39922 7.13268,12.1665 3.56693,2.76614 8.56654,4.16693 15.0343,4.16693 7.09961,0 12.4323,-1.30039 15.9992,-3.93425 2.43307,-1.8 3.63307,-4.26614 3.63307,-7.29922 0,-2.1 -0.666142,-3.83386 -1.96654,-5.2004 -1.36654,-1.30039 -4.43268,-2.5004 -9.16654,-3.6 -22.1327,-4.86614 -36.1666,-9.33308 -42.0992,-13.3665 -8.2004,-5.59961 -12.3,-13.3996 -12.3,-23.3669 0,-8.96693 3.53268,-16.5331 10.6335,-22.6335 7.09961,-6.13229 18.0992,-9.19961 32.9988,-9.19961 14.2004,0 24.7677,2.33386 31.6677,6.93308 6.9,4.63347 11.6327,11.4673 14.2323,20.5335l-25.8662 4.76693c-1.09961,-4.03347 -3.19961,-7.13386 -6.3,-9.26693 -3.1004,-2.16614 -7.5,-3.23268 -13.2331,-3.23268 -7.23308,0 -12.4004,0.999213 -15.5339,3.03307 -2.06693,1.43268 -3.09921,3.3 -3.09921,5.56654 0,1.96654 0.900001,3.6 2.73307,4.96654 2.46614,1.83307 10.9996,4.39961 25.6335,7.73386 14.5996,3.3 24.7996,7.36654 30.6,12.1996 5.73307,4.9004 8.59961,11.7 8.59961,20.4 0,9.49961 -3.96614,17.7 -11.9339,24.5327 -7.93229,6.83386 -19.6665,10.2343 -35.2323,10.2343 -14.1343,0 -25.3004,-2.86772 -33.5669,-8.60079 -8.23347,-5.7 -13.6004,-13.5 -16.1339,-23.3327zm120.9 29.5996l0 -27.4335 27.4335 0 0 27.4335 -27.4335 0zm145.999 -73.0335l-27.0662 4.86733c-0.900001,-5.4 -2.96693,-9.46654 -6.19961,-12.2008 -3.23386,-2.73307 -7.40079,-4.09961 -12.5339,-4.09961 -6.86693,0 -12.3,2.36693 -16.3665,7.06654 -4.06654,4.73386 -6.1004,12.6331 -6.1004,23.7 0,12.3 2.06693,21 6.20079,26.0669 4.13268,5.06693 9.66615,7.59922 16.6335,7.59922 5.23347,0 9.46654,-1.46575 12.7996,-4.43268 3.33307,-2.96693 5.66693,-8.06693 7.03347,-15.2669l26.9669 4.56733c-2.8004,12.3661 -8.2004,21.7323 -16.1339,28.0323 -7.93347,6.33426 -18.5669,9.46772 -31.9335,9.46772 -15.1665,0 -27.2658,-4.76693 -36.2658,-14.3339 -9.03426,-9.56693 -13.5343,-22.8331 -13.5343,-39.7666 0,-17.1 4.53425,-30.4335 13.5673,-39.9662 9.06615,-9.56693 21.3,-14.3339 36.7335,-14.3339 12.6331,0 22.6665,2.73307 30.1323,8.16615 7.43386,5.43426 12.8008,13.7339 16.0665,24.8669zm14.4331 19.7008c0,-9.1004 2.26654,-17.9339 6.73347,-26.4673 4.5,-8.5004 10.8673,-15.0331 19.0996,-19.5 8.23347,-4.5 17.4343,-6.76654 27.6,-6.76654 15.6673,0 28.5343,5.1 38.5677,15.3 10.0323,10.2 15.0331,23.0669 15.0331,38.6339 0,15.6662 -5.06693,28.6666 -15.1665,38.9988 -10.1339,10.3335 -22.8673,15.4677 -38.2335,15.4677 -9.53386,0 -18.5669,-2.13425 -27.2008,-6.43347 -8.63268,-4.3004 -15.1996,-10.6004 -19.6996,-18.9 -4.46693,-8.30079 -6.73347,-18.4004 -6.73347,-30.3331zm28.1339 1.46575c0,10.3004 2.43307,18.1665 7.33347,23.6339 4.86614,5.46615 10.8992,8.19922 18.0662,8.19922 7.16693,0 13.1669,-2.73307 18,-8.19922 4.86733,-5.46733 7.3004,-13.3996 7.3004,-23.8335 0,-10.1339 -2.43307,-17.9669 -7.3004,-23.4331 -4.83307,-5.46733 -10.8331,-8.2004 -18,-8.2004 -7.16693,0 -13.2,2.73307 -18.0662,8.2004 -4.9004,5.46615 -7.33347,13.3665 -7.33347,23.6327zm98.3327 -51.8327l25.3004 0 0 14.1331c9.03308,-10.9996 19.8331,-16.5 32.3327,-16.5 6.63307,0 12.4004,1.36654 17.2665,4.09961 4.9004,2.73425 8.90079,6.86693 12.0331,12.4004 4.53425,-5.53347 9.46654,-9.66615 14.7343,-12.4004 5.26654,-2.73307 10.8992,-4.09961 16.8992,-4.09961 7.6004,0 14.0669,1.56732 19.3335,4.66654 5.26654,3.06732 9.19961,7.63347 11.8004,13.6004 1.89921,4.43268 2.83347,11.5996 2.83347,21.4996l0 66.3 -27.4335 0 0 -59.2666c0,-10.3004 -0.933071,-16.9335 -2.83347,-19.9335 -2.53347,-3.9 -6.43347,-5.86654 -11.7,-5.86654 -3.86693,0 -7.46693,1.16693 -10.8673,3.53386 -3.36614,2.33268 -5.79922,5.76615 -7.29922,10.2992 -1.5,4.53307 -2.26654,11.6669 -2.26654,21.4335l0 49.8 -27.4335 0 0 -56.8335c0,-10.0996 -0.499607,-16.5992 -1.46693,-19.5331 -0.966142,-2.93386 -2.5004,-5.1 -4.53307,-6.53386 -2.06693,-1.43268 -4.83307,-2.16614 -8.36693,-2.16614 -4.23307,0 -8.03268,1.13386 -11.4,3.43347 -3.4004,2.26654 -5.83347,5.56654 -7.3004,9.86694 -1.46575,4.29922 -2.19921,11.4 -2.19921,21.3662l0 50.4 -27.4335 0 0 -103.7zm179.9 103.7l0 -27.4335 27.4335 0 0 27.4335 -27.4335 0zm76.0654 -72.0662l-24.9 -4.5c2.8004,-10.0335 7.6004,-17.4343 14.4343,-22.2673 6.86575,-4.8 16.9996,-7.23308 30.4666,-7.23308 12.2658,0 21.3662,1.46693 27.3662,4.36654 5.96693,2.89961 10.2,6.56693 12.6331,11.0339 2.43425,4.46575 3.66733,12.6331 3.66733,24.5658l-0.3 32.0339c0,9.1004 0.433465,15.8327 1.33347,20.1662 0.865749,4.3004 2.53228,8.96693 4.93229,13.9004l-27.1666 0c-0.699213,-1.83307 -1.59921,-4.53307 -2.63268,-8.1 -0.433465,-1.63347 -0.766536,-2.7 -0.967323,-3.23386 -4.69961,4.56733 -9.69922,7.96772 -15.0331,10.2673 -5.33268,2.26654 -11.0327,3.4004 -17.1,3.4004 -10.6665,0 -19.0996,-2.90079 -25.2331,-8.66693 -6.16654,-5.8004 -9.23268,-13.1339 -9.23268,-22.0004 0,-5.83347 1.39961,-11.0669 4.2,-15.6662 2.79921,-4.6004 6.73229,-8.1 11.7661,-10.5331 5.03386,-2.43425 12.3331,-4.56733 21.8327,-6.4004 12.8008,-2.4 21.7004,-4.66654 26.6339,-6.73347l0 -2.73307c0,-5.30079 -1.30039,-9.03308 -3.9,-11.3008 -2.59961,-2.23228 -7.5,-3.36614 -14.7331,-3.36614 -4.9004,0 -8.70001,0.966142 -11.4331,2.89961 -2.73425,1.90039 -4.93347,5.26654 -6.63426,10.1008zm36.7004 22.2662c-3.49961,1.16693 -9.06615,2.56654 -16.6996,4.2 -7.6004,1.63347 -12.5669,3.23386 -14.9339,4.76693 -3.56693,2.56654 -5.36693,5.76615 -5.36693,9.66615 0,3.86693 1.43386,7.16693 4.3004,9.96733 2.86654,2.79921 6.49961,4.2 10.9335,4.2 4.96654,0 9.66615,-1.63347 14.1662,-4.86733 3.33425,-2.46614 5.5004,-5.49922 6.53386,-9.09922 0.733465,-2.33386 1.06654,-6.80079 1.06654,-13.3665l0 -5.46733zm80.2997 49.8l-27.4335 0 0 -103.7 25.4669 0 0 14.7331c4.36654,-6.96615 8.29961,-11.5665 11.7661,-13.7669 3.49961,-2.19921 7.43386,-3.33307 11.8665,-3.33307 6.26693,0 12.2669,1.73386 18.0673,5.2004l-8.5004 23.8996c-4.6004,-2.96693 -8.89961,-4.46693 -12.8669,-4.46693 -3.86693,0 -7.09961,1.03347 -9.76654,3.16654 -2.7,2.1 -4.76693,5.93386 -6.3,11.4673 -1.53307,5.53347 -2.29961,17.1331 -2.29961,34.7658l0 32.0339z"/>
  <g id="_119165968">
   <g>
    <path id="_85165368" class="fil1" d="M66.5339 291.779c16.3677,30.8681 60.5906,30.8469 76.9512,0l-76.9512 0z"/>
    <path id="_85165488" class="fil1" d="M376.096 291.779c-16.3736,30.874 -60.5989,30.8398 -76.9512,0l76.9512 0z"/>
   </g>
   <g>
    <path id="_120563424" class="fil2" d="M85.2804 291.779l-18.7465 0c9.06733,17.0988 28.4669,26.4095 47.8477,22.154 -12.6319,-2.77323 -23.2051,-11.0327 -29.1012,-22.154z"/>
    <path id="_120563568" class="fil2" d="M317.892 291.779l-18.7465 0c9.06733,17.0988 28.4681,26.4106 47.8488,22.154 -12.6307,-2.77323 -23.2051,-11.0327 -29.1024,-22.154z"/>
   </g>
   <path id="_120563688" class="fil1" d="M220.862 90.4418c-7.17756,0 -12.9933,5.81929 -12.9933,12.9957 0,11.9126 0,4.00866 0,15.7996l0 6.40158 0 33.6851 0 6.40158 0 115.698 0 6.4004 0 48.0839 0 6.40158 25.989 0 0 -6.40158 0 -48.0839 0 -6.4004c0,-7.70079 0,-170.235 0,-177.988 -0.0011811,-7.1752 -5.81811,-12.9945 -12.9957,-12.9945z"/>
   <path id="_120563832" class="fil2" d="M221.974 287.825l0 -6.4004c0,-20.4012 0,-156.662 0,-177.988 0,-4.57441 2.36929,-8.58898 5.94095,-10.9051 -8.62205,-5.58898 -20.048,0.615355 -20.048,10.9051 0,9.32363 0,-2.13425 0,7.80355l0 7.99607 0 6.40158 0 33.6851 0 6.40158 0 115.698 0 6.4004 0 48.0839 0 6.40158 14.1071 0 0 -6.40158 0 -48.0827z"/>
   <g>
    <path id="_120564216" class="fil1" d="M337.428 157.414c-66.9237,-18.3248 -95.9682,-26.3988 -95.9682,-26.3988 2.91851,8.73071 0.625985,18.6225 -6.49134,25.1693 8.00197,2.19095 0.799607,0.200788 41.6918,11.537 11.1532,3.05433 41.7579,11.4343 53.9044,14.7602 6.92245,1.89567 14.0705,-2.1815 15.9662,-9.10276 1.89449,-6.92245 -2.18032,-14.0705 -9.10276,-15.965z"/>
    <path id="_120564360" class="fil1" d="M199.029 138.595c0,-2.6504 0.438189,-5.19685 1.23425,-7.57914 0,0 -31.4351,8.72835 -95.9682,26.3965 -6.92126,1.89567 -10.9973,9.04253 -9.10276,15.9662 1.89567,6.92126 9.04371,10.9973 15.965,9.10158 64.8804,-17.765 45.5197,-12.4347 89.4119,-24.6036l6.18662 -1.6937c-4.74803,-4.36536 -7.72678,-10.6276 -7.72678,-17.5878z"/>
   </g>
   <g>
    <path id="_120564720" class="fil2" d="M330.565 168.913c-64.4445,-17.6469 -43.9949,-12.0118 -88.6205,-24.3839 -1.16339,4.54843 -3.62599,8.57481 -6.97559,11.6551 8.00197,2.19213 0.799607,0.200788 41.6918,11.5382 11.1532,3.05433 41.7579,11.4343 53.9044,14.7591 11.3563,3.10984 20.6185,-9.32127 14.5039,-19.311 -2.94449,4.80355 -8.79804,7.30512 -14.5039,5.74252z"/>
    <path id="_120564864" class="fil2" d="M199.779 144.529c-42.8729,11.8854 -24.2693,6.76418 -88.6217,24.3839 -5.70709,1.5626 -11.5606,-0.940158 -14.5028,-5.7437 -6.12402,10.0063 3.16063,22.4197 14.5028,19.3122 64.8804,-17.765 45.5197,-12.4347 89.4119,-24.6036l6.18662 -1.6937c-3.35079,-3.08032 -5.81339,-7.10788 -6.97678,-11.6551z"/>
   </g>
   <g>
    <path id="_120565224" class="fil3" d="M159.151 283.552c0,4.84725 -3.93071,8.77914 -8.77914,8.77914l-90.7253 0c-4.84843,0 -8.77914,-3.93071 -8.77914,-8.77914l0 -4.79882c0,-4.84961 3.93189,-8.78032 8.77914,-8.78032l90.7253 0c4.84843,0 8.77914,3.93071 8.77914,8.78032l0 4.79882z"/>
    <path id="_120565368" class="fil3" d="M283.477 283.552c0,4.84725 3.93189,8.77914 8.78032,8.77914l90.7253 0c4.84725,0 8.78032,-3.93071 8.78032,-8.77914l0 -4.79882c0,-4.84961 -3.93189,-8.78032 -8.78032,-8.78032l-90.7241 0c-4.84843,0 -8.78032,3.93071 -8.78032,8.78032l-0.0011811 4.79882z"/>
   </g>
   <g>
    <path id="_120565728" class="fil4" d="M150.372 281.152l-90.7253 0c-3.72166,0 -6.8941,-2.32087 -8.17205,-5.58898 -0.745276,1.90748 -0.607087,2.77087 -0.607087,7.98898 0,4.84725 3.93189,8.77914 8.77914,8.77914l90.7253 0c4.84843,0 8.77914,-3.93071 8.77914,-8.77914 0,-5.19922 0.141732,-6.07441 -0.607087,-7.98898 -1.27677,3.26811 -4.44922,5.58898 -8.17205,5.58898z"/>
    <path id="_120565872" class="fil4" d="M382.982 281.152l-90.7241 0c-3.72166,0 -6.89528,-2.32087 -8.17323,-5.58898 -0.75,1.91811 -0.607087,2.8063 -0.607087,7.98898 0,4.84725 3.93189,8.77914 8.78032,8.77914l90.7241 0c4.84725,0 8.78032,-3.93071 8.78032,-8.77914l0 -4.79882c0,-1.12677 -0.220866,-2.20158 -0.607087,-3.19134 -1.27795,3.26929 -4.45158,5.59016 -8.17323,5.59016z"/>
   </g>
   <path id="_120565320" class="fil5" d="M240.643 335.909l-39.5634 0c-4.35827,0 -7.89095,3.53386 -7.89095,7.89095l0 6.57638 0 13.1185 55.3465 0 0 -13.1185 0 -6.57638c0.0011811,-4.35827 -3.53386,-7.89095 -7.89213,-7.89095z"/>
   <path id="_120565992" class="fil6" d="M206.843 343.8c0,-4.35827 3.53268,-7.89095 7.89213,-7.89095l-13.6559 0c-4.35827,0 -7.89095,3.53386 -7.89095,7.89095l0 6.57638 0 13.1185 13.6547 0 0 -13.1185 0 -6.57638z"/>
   <circle id="_120566376" class="fil3" cx="220.865" cy="139.282" r="23.8898"/>
   <path id="_120566448" class="fil4" d="M209.966 139.282c0,-10.9417 7.35827,-20.1591 17.3929,-22.9902 -15.3106,-4.31693 -30.3874,7.21536 -30.3874,22.9902 0,15.7772 15.0791,27.3071 30.3874,22.9902 -10.0358,-2.83229 -17.3929,-12.0484 -17.3929,-22.9902z"/>
   <path id="_120566616" class="fil1" d="M266.225 358.268l-90.7241 0c-4.84961,0 -8.78032,3.93189 -8.78032,8.7815l0 4.79882 0 11.8913 108.285 0 0 -11.8913 0 -4.79882c-0.0011811,-4.84961 -3.93189,-8.7815 -8.78032,-8.7815z"/>
   <path id="_120566760" class="fil2" d="M180.376 367.048c0,-4.84843 3.93071,-8.78032 8.78032,-8.78032l-13.6559 0c-4.84843,0 -8.77914,3.93189 -8.77914,8.78032l0 4.79882 0 11.8913 13.6547 0 0 -11.8913 0 -4.79882z"/>
   <path id="_120567048" class="fil5" d="M279.881 381.681l-27.313 0 -63.4122 0 -27.313 0c-4.84843,0 -8.77914,3.93189 -8.77914,8.78032l0 4.8c0,4.84725 3.93071,8.77914 8.77914,8.77914l27.313 0 63.4122 0 27.313 0c4.84725,0 8.77914,-3.93189 8.77914,-8.77914l0 -4.8c0,-4.84961 -3.93071,-8.78032 -8.77914,-8.78032z"/>
   <path id="_120567192" class="fil6" d="M279.881 392.861l-27.313 0 -63.4122 0 -27.313 0c-3.72166,0 -6.8941,-2.32087 -8.17205,-5.58898 -0.387402,0.989764 -0.607087,2.06457 -0.607087,3.19016l0 4.8c0,4.84725 3.93071,8.77914 8.77914,8.77914l27.313 0 63.4122 0 27.313 0c4.84725,0 8.77914,-3.93189 8.77914,-8.78032l0 -4.79882c0,-1.12677 -0.219685,-2.20158 -0.607087,-3.19134 -1.27677,3.26929 -4.4504,5.59016 -8.17205,5.59016z"/>
   <path id="_120567264" class="fil7" d="M382.977 264.823l-0.497244 0 -34.5331 -83.3186c8.45552,-10.1799 3.44646,-25.6063 -9.16654,-29.0599l-91.4339 -25.0335c-1.90039,-4.22599 -4.77874,-7.91812 -8.35158,-10.7847l0 -13.1965c0,-10.0016 -8.13662,-18.1382 -18.1394,-18.1382 -10.0004,0 -18.137,8.13662 -18.137,18.1382l0 13.1965c-3.57284,2.86654 -6.45237,6.55867 -8.35276,10.7858l-91.4363 25.0335c-13.0606,3.57638 -17.765,19.7575 -8.55001,29.7614l-34.2425 82.6158c-8.8441,0 -14.4189,6.74292 -14.4189,13.924l0 4.79882c0,7.67835 6.24567,13.9228 13.924,13.9228l3.41929 0c18.828,31.9795 65.0859,31.9252 83.8843,0l3.42166 0c7.67835,0 13.924,-6.24449 13.924,-13.9228l0 -4.79882c0,-7.15748 -5.54764,-13.924 -14.4201,-13.924l-32.6138 -78.6886 85.4611 -23.3977 0 168.021 -1.64528 0c-7.18583,0 -13.0347,5.84764 -13.0347,13.0358 0,7.09252 -0.0826772,7.56733 0.297638,9.32363l-12.8421 0c-7.67835,0 -13.924,6.24567 -13.924,13.9252l0 9.50079c-7.55434,0.144095 -13.6571,6.32244 -13.6571,13.9122l0 4.79882c0,7.67717 6.24449,13.924 13.924,13.924l47.0162 0c2.84173,0 5.14252,-2.30315 5.14252,-5.1437 0,-2.84173 -2.30197,-5.1437 -5.14252,-5.1437l-47.0162 0c-2.00551,0 -3.63662,-1.6311 -3.63662,-3.63662l0 -4.79882c0,-2.00551 1.6311,-3.6378 3.63662,-3.6378l4.87677 0c4.31221,0 106.204,0 113.16,0 2.00433,0 3.63662,1.63228 3.63662,3.6378l0 4.79882c0,2.00551 -1.6311,3.63662 -3.63662,3.63662l-47.0174 0c-2.84173,0 -5.1437,2.30197 -5.1437,5.14252 0,2.84173 2.30315,5.1437 5.1437,5.1437l47.0174 0.0011811c7.67717,0 13.924,-6.24567 13.924,-13.924l0 -4.8c0,-7.58741 -6.10158,-13.7669 -13.6559,-13.911l0 -9.50197c0,-7.67835 -6.24567,-13.9252 -13.924,-13.9252l-12.8433 0.0011811c0.37441,-1.73386 0.297638,-2.14134 0.297638,-9.32363 0,-7.18701 -5.84764,-13.0358 -13.037,-13.0358l-1.6441 0 0 -71.1449c0,-2.84292 -2.30197,-5.1437 -5.14252,-5.1437 -2.84173,0 -5.1437,2.30197 -5.1437,5.1437l0 71.1461 -15.7016 0 0 -163.527c4.95355,1.41378 10.6512,1.43386 15.7016,-0.0011811l0 68.3764c0,2.84173 2.30315,5.1437 5.1437,5.1437 2.84173,0 5.14252,-2.30315 5.14252,-5.1437l0 -72.8705 86.2725 23.6221 -32.5169 78.463c-8.84646,0 -14.4189,6.74528 -14.4189,13.924l0 4.8c0,7.67717 6.24685,13.9228 13.9252,13.9228l3.42047 0c18.8232,31.9725 65.08,31.9323 83.8843,0l3.42047 0c7.67717,0 13.924,-6.24567 13.924,-13.9228l0 -4.8c-0.0011811,-7.67717 -6.24685,-13.9228 -13.9252,-13.9228zm-283.117 -68.9693l0 68.9693 -28.5862 0 28.5862 -68.9693zm-23.5477 102.435l57.3839 0c-15.2504,17.1791 -42.15,17.165 -57.3839,0zm74.0552 -23.178c2.00433,0 3.63662,1.6311 3.63662,3.63662l0 4.79882c0,2.00551 -1.6311,3.63662 -3.63662,3.63662l-90.7253 -0.0011811c-2.00433,0 -3.63662,-1.62992 -3.63662,-3.63544l0 -4.8c0,-2.00433 1.6311,-3.63544 3.63662,-3.63544 2.41772,0 84.6934,0 86.7922,0 0,0 3.90945,0 3.93307,0zm-11.6339 -10.2874l-28.5862 0 0 -68.9705 28.5862 68.9705zm-30.3024 -87.0768c-1.91811,0.183071 -3.52914,-0.314173 -5.12008,-1.31929 -5.57599,-3.80079 -4.05827,-12.3083 2.33622,-14.061l86.1792 -23.5937c-0.0838583,5.16969 1.21654,10.4598 3.99331,15.1866 -90.1406,24.6815 -86.2548,23.6811 -87.3886,23.7874zm104.575 -74.3162c0,-4.32992 3.52205,-7.85079 7.84961,-7.85079 4.32992,0 7.85079,3.52205 7.85079,7.85079l0 7.88741c-5.06929,-1.42559 -10.6689,-1.42441 -15.7016,0l0 -7.88741 0.0011811 0zm53.2134 259.975c2.00551,0 3.63662,1.6311 3.63662,3.6378l0 9.4878 -97.9961 0 0 -9.48898c0,-2.00551 1.62992,-3.6378 3.63544,-3.6378 4.48229,0.0011811 87.2658,0.0011811 90.7241,0.0011811zm-25.5827 -22.3583c1.51536,0 2.74843,1.23307 2.74843,2.74725l0 6.57638c0,1.51536 -1.23307,2.74843 -2.74843,2.74843l-39.5634 -0.0011811c-1.51417,0 -2.74725,-1.23307 -2.74725,-2.74725l0 -6.57638c0,-1.51536 1.23307,-2.74843 2.74725,-2.74843 4.72087,0.0011811 34.9382,0.0011811 39.5634,0.0011811zm-18.5658 -183.067c-7.26733,0.470079 -14.0209,-3.29173 -17.5335,-9.49607 -9.34961,-16.5803 9.65906,-35.55 26.3173,-25.0559 15.3921,9.74882 9.17127,33.4311 -8.78386,34.552zm120.687 37.8744l28.5862 68.9693 -28.5862 0 0 -68.9693zm-96.8646 -41.8937c2.77205,-4.77166 4.07717,-9.96142 3.99331,-15.1866l86.1768 23.5937c4.17638,1.14331 6.64252,5.47087 5.5004,9.64607 -1.06417,3.88465 -4.96181,6.25748 -8.18859,5.61496 -0.451181,-0.0909449 -0.903544,-0.120473 -1.34528,-0.092126 -0.537402,-0.134646 -85.2355,-23.3291 -86.1367,-23.576zm86.5772 41.889l0 68.9741 -28.5874 0 28.5874 -68.9741zm-23.5477 102.439l57.3827 0c-15.248,17.1803 -42.1488,17.165 -57.3827,0zm77.6894 -14.7425c0,2.00433 -1.6311,3.63544 -3.63544,3.63544l-90.7253 0c-2.00551,0 -3.6378,-1.62992 -3.6378,-3.63544l0 -4.8c0,-2.00433 1.6311,-3.63544 3.6378,-3.63544 2.41654,0 84.6934,0 86.7922,0 0.00472441,-0.0011811 0.0106299,-0.0011811 0.0141732,0l3.92008 0c2.00433,0 3.63662,1.6311 3.63662,3.63662l-0.00236221 4.79882 0 0z"/>
   <g>
   </g>
   <g>
   </g>
   <g>
   </g>
   <g>
   </g>
   <g>
   </g>
   <g>
   </g>
   <g>
   </g>
   <g>
   </g>
   <g>
   </g>
   <g>
   </g>
   <g>
   </g>
   <g>
   </g>
   <g>
   </g>
   <g>
   </g>
   <g>
   </g>
  </g>
 </g>
</svg>
