<?xml version="1.0" standalone="no"?>
<!DOCTYPE svg PUBLIC "-//W3C//DTD SVG 20010904//EN"
 "http://www.w3.org/TR/2001/REC-SVG-20010904/DTD/svg10.dtd">
<svg version="1.0" xmlns="http://www.w3.org/2000/svg"
 width="700.000000pt" height="700.000000pt" viewBox="0 0 700.000000 700.000000"
 preserveAspectRatio="xMidYMid meet">
<metadata>
Created by potrace 1.11, written by Peter Selinger 2001-2013
</metadata>
<g transform="translate(0.000000,700.000000) scale(0.100000,-0.100000)"
fill="#000000" stroke="none">
<path d="M3440 6759 c-153 -19 -284 -114 -351 -254 -16 -33 -29 -65 -29 -72 0
-9 -170 -13 -737 -15 -692 -3 -740 -4 -777 -21 -62 -29 -102 -64 -141 -123
-45 -68 -77 -89 -133 -89 -37 0 -48 5 -77 37 -23 25 -36 50 -40 82 -11 69 -49
106 -110 106 -39 0 -52 -5 -77 -31 -30 -29 -30 -32 -26 -102 3 -50 13 -87 30
-122 24 -46 99 -126 142 -150 16 -9 -35 -147 -548 -1481 -473 -1229 -566
-1479 -566 -1520 0 -70 26 -237 49 -319 130 -464 530 -825 1006 -910 116 -21
332 -21 447 -1 583 104 1033 617 1050 1196 l3 95 -565 1464 c-526 1367 -563
1465 -545 1475 37 22 105 89 132 132 15 24 39 48 53 54 17 7 260 9 723 8 l698
-3 22 -55 c13 -31 37 -76 55 -102 l32 -47 0 -2535 0 -2536 -492 0 c-530 0
-555 -2 -633 -52 -60 -38 -101 -86 -132 -153 -39 -84 -39 -195 -1 -277 50
-107 146 -179 264 -198 36 -6 566 -10 1334 -10 768 0 1298 4 1334 10 118 19
214 91 264 198 38 82 38 193 -1 277 -31 67 -72 115 -132 153 -78 50 -103 52
-632 52 l-493 0 0 2536 0 2535 32 47 c18 26 42 71 55 102 l22 55 698 3 c463 1
706 -1 723 -8 14 -6 38 -30 53 -54 27 -43 95 -110 132 -132 18 -10 -19 -108
-545 -1475 l-565 -1464 3 -95 c17 -579 467 -1092 1050 -1196 115 -20 331 -20
447 1 476 85 876 446 1006 910 23 82 49 249 49 319 0 41 -93 291 -566 1520
-513 1334 -564 1472 -548 1481 43 24 118 104 142 150 17 35 27 72 30 122 4 70
4 73 -26 102 -25 26 -38 31 -77 31 -61 0 -99 -37 -110 -106 -4 -32 -17 -57
-40 -82 -29 -32 -40 -37 -77 -37 -56 0 -88 21 -133 89 -39 59 -79 94 -141 123
-37 17 -85 18 -776 21 -568 2 -738 6 -738 15 0 7 -13 39 -29 72 -85 178 -271
279 -471 254z m156 -234 c50 -20 100 -71 124 -127 46 -107 6 -231 -94 -293
-44 -27 -58 -30 -126 -30 -68 0 -82 3 -126 30 -122 76 -150 245 -58 355 66 78
181 105 280 65z m-96 -677 c32 0 72 3 89 7 l31 7 0 -2471 0 -2471 -120 0 -120
0 0 2471 0 2471 31 -7 c17 -4 57 -7 89 -7z m-1714 -1401 l501 -1302 -1005 -3
c-553 -1 -1007 -1 -1008 1 -6 5 1001 2615 1006 2610 3 -2 230 -590 506 -1306z
m4445 -6 c275 -712 497 -1296 495 -1298 -1 -2 -455 -2 -1008 -1 l-1005 3 498
1295 c579 1503 510 1329 517 1310 3 -8 229 -597 503 -1309z m-3907 -1568 c-11
-78 -52 -213 -89 -291 -130 -276 -375 -483 -673 -567 -426 -121 -903 52 -1153
417 -85 124 -157 305 -175 438 l-7 50 1052 0 1052 0 -7 -47z m4446 23 c0 -41
-47 -209 -79 -285 -69 -163 -224 -352 -369 -450 -304 -206 -707 -241 -1038
-91 -316 143 -559 464 -608 803 l-7 47 1050 0 1051 0 0 -24z m-1922 -2216 c43
-26 67 -77 58 -123 -8 -45 -54 -92 -97 -101 -41 -8 -2562 -8 -2612 1 -112 18
-141 164 -45 223 33 20 53 20 1348 20 1295 0 1315 0 1348 -20z"/>
</g>
</svg>
