<?xml version="1.0" encoding="UTF-8"?>
<!DOCTYPE svg PUBLIC "-//W3C//DTD SVG 1.1//EN" "http://www.w3.org/Graphics/SVG/1.1/DTD/svg11.dtd">
<!-- Creator: CorelDRAW -->
<svg xmlns="http://www.w3.org/2000/svg" xml:space="preserve" width="2300px" height="250px" style="shape-rendering:geometricPrecision; text-rendering:geometricPrecision; image-rendering:optimizeQuality; fill-rule:evenodd; clip-rule:evenodd"
viewBox="0 0 2300 249.999"
 xmlns:xlink="http://www.w3.org/1999/xlink"
 version="1.1">
 <defs>
  <style type="text/css">
   <![CDATA[
    .fil6 {fill:black}
    .fil1 {fill:#845135}
    .fil0 {fill:#93603E}
    .fil5 {fill:#D1D3D3}
    .fil4 {fill:#E8E8E8}
    .fil3 {fill:#EF8F11}
    .fil2 {fill:#FFA92C}
    .fil7 {fill:#0093DD;fill-rule:nonzero}
   ]]>
  </style>
 </defs>
 <g id="Layer_x0020_1">
  <metadata id="CorelCorpID_0Corel-Layer"/>
  <g id="_119165968">
   <g>
    <path id="_85165368" class="fil0" d="M113.299 166.932c10.2732,19.3736 38.0303,19.3606 48.2989,0l-48.2989 0z"/>
    <path id="_85165488" class="fil0" d="M307.598 166.932c-10.2768,19.3772 -38.0351,19.3559 -48.2989,0l48.2989 0z"/>
   </g>
   <g>
    <path id="_120563424" class="fil1" d="M125.065 166.932l-11.7661 0c5.69174,10.7315 17.8677,16.5756 30.0319,13.9051 -7.92875,-1.74095 -14.5642,-6.92481 -18.2658,-13.9051z"/>
    <path id="_120563568" class="fil1" d="M271.067 166.932l-11.7673 0c5.69174,10.7315 17.8689,16.5768 30.0331,13.9051 -7.92756,-1.74095 -14.5642,-6.92481 -18.2658,-13.9051z"/>
   </g>
   <path id="_120563688" class="fil0" d="M210.164 40.5603c-4.50473,0 -8.15552,3.65315 -8.15552,8.1567 0,7.47756 0,2.51575 0,9.91654l0 4.01811 0 21.1429 0 4.01811 0 72.6189 0 4.01811 0 30.1795 0 4.01811 16.3122 0 0 -4.01811 0 -30.1795 0 -4.01811c0,-4.83307 0,-106.85 0,-111.716 0,-4.50355 -3.65079,-8.15552 -8.1567,-8.15552l0 0z"/>
   <path id="_120563832" class="fil1" d="M210.862 164.45l0 -4.01693c0,-12.8055 0,-98.3304 0,-111.716 0,-2.87126 1.48701,-5.39174 3.72874,-6.84449 -5.41181,-3.50906 -12.5835,0.38504 -12.5835,6.84449 0,5.85119 0,-1.34055 0,4.89803l0 5.01851 0 4.01811 0 21.1429 0 4.01811 0 72.6189 0 4.01693 0 30.1807 0 4.01811 8.85473 0 0 -4.01811 0 -30.1795 0 0z"/>
   <g>
    <path id="_120564216" class="fil0" d="M283.329 82.5957c-42.0059,-11.5016 -60.2363,-16.5697 -60.2363,-16.5697 1.83189,5.48032 0.393307,11.6894 -4.07362,15.7984 5.02205,1.3748 0.501969,0.126378 26.1673,7.24134 7.00158,1.91693 26.2099,7.17638 33.8339,9.26457 4.34528,1.18937 8.83229,-1.37008 10.0217,-5.71418 1.18937,-4.3441 -1.3689,-8.83111 -5.713,-10.0205l0 0z"/>
    <path id="_120564360" class="fil0" d="M196.461 70.7835c0,-1.66299 0.274016,-3.26103 0.774804,-4.7563 0,0 -19.7315,5.47796 -60.2363,16.5673 -4.3441,1.19055 -6.90237,5.67638 -5.713,10.0217 1.18937,4.3441 5.67638,6.90237 10.0205,5.713 40.7233,-11.1508 28.5709,-7.80473 56.1201,-15.4429l3.88347 -1.06299c-2.97992,-2.74016 -4.84961,-6.67087 -4.84961,-11.0386l0 -0.0011811z"/>
   </g>
   <g>
    <path id="_120564720" class="fil1" d="M279.02 89.8134c-40.4492,-11.0764 -27.613,-7.53898 -55.6229,-15.3047 -0.729922,2.85473 -2.27599,5.38229 -4.37835,7.31575 5.02205,1.37599 0.501969,0.125197 26.1685,7.24134 7.0004,1.91693 26.2099,7.17756 33.8339,9.26457 7.12796,1.95118 12.9413,-5.85119 9.10276,-12.1217 -1.84843,3.01536 -5.52166,4.58504 -9.10276,3.60473l-0.0011811 0z"/>
    <path id="_120564864" class="fil1" d="M196.931 74.5087c-26.9091,7.45985 -15.2327,4.24607 -55.6241,15.3047 -3.58229,0.980316 -7.25552,-0.590552 -9.10276,-3.60473 -3.84331,6.27993 1.98425,14.0717 9.10276,12.1217 40.7233,-11.1508 28.5709,-7.80473 56.1201,-15.4429l3.88347 -1.06299c-2.10354,-1.93347 -3.64843,-4.46103 -4.37953,-7.31575l0 0z"/>
   </g>
   <g>
    <path id="_120565224" class="fil2" d="M171.431 161.767c0,3.04252 -2.46732,5.51103 -5.51103,5.51103l-56.9445 0c-3.04252,0 -5.50985,-2.46732 -5.50985,-5.51103l0 -3.01181c0,-3.0437 2.46732,-5.51103 5.50985,-5.51103l56.9445 0c3.0437,0 5.51103,2.46732 5.51103,5.51103l0 3.01181z"/>
    <path id="_120565368" class="fil2" d="M249.466 161.767c0,3.04252 2.46732,5.51103 5.51103,5.51103l56.9445 0c3.04252,0 5.51103,-2.46732 5.51103,-5.51103l0 -3.01181c0,-3.0437 -2.46732,-5.51103 -5.51103,-5.51103l-56.9433 0c-3.0437,0 -5.51103,2.46732 -5.51103,5.51103l-0.0011811 3.01181z"/>
   </g>
   <g>
    <path id="_120565728" class="fil3" d="M165.92 160.262l-56.9445 0c-2.33622,0 -4.32756,-1.4563 -5.12953,-3.50788 -0.467717,1.19764 -0.380315,1.73858 -0.380315,5.01378 0,3.04252 2.46732,5.51103 5.50985,5.51103l56.9445 0c3.0437,0 5.51103,-2.46732 5.51103,-5.51103 0,-3.26339 0.0885827,-3.8126 -0.381496,-5.01378 -0.800788,2.05158 -2.79213,3.50788 -5.12953,3.50788z"/>
    <path id="_120565872" class="fil3" d="M311.921 160.262l-56.9445 0c-2.33622,0 -4.32756,-1.4563 -5.12953,-3.50788 -0.47126,1.20354 -0.381496,1.76102 -0.381496,5.01378 0,3.04252 2.46851,5.51103 5.51103,5.51103l56.9445 0c3.04252,0 5.51103,-2.46732 5.51103,-5.51103l0 -3.01181c0,-0.707481 -0.13937,-1.38189 -0.381496,-2.00315 -0.801969,2.05276 -2.79331,3.50906 -5.12953,3.50906z"/>
   </g>
   <path id="_120565320" class="fil4" d="M222.58 194.63l-24.8327 0c-2.73543,0 -4.95237,2.21811 -4.95237,4.95237l0 4.12796 0 8.23347 34.7386 0 0 -8.23347 0 -4.12796c0.0011811,-2.73543 -2.21811,-4.95237 -4.95355,-4.95237l0 0z"/>
   <path id="_120565992" class="fil5" d="M201.365 199.583c0,-2.73543 2.21811,-4.95237 4.95355,-4.95237l-8.57127 0c-2.73543,0 -4.95237,2.21811 -4.95237,4.95237l0 4.12796 0 8.23347 8.57008 0 0 -8.23347 0 -4.12796z"/>
   <circle id="_120566376" class="fil2" cx="210.166" cy="71.2153" r="14.9946"/>
   <path id="_120566448" class="fil3" d="M203.326 71.2158c0,-6.86811 4.61811,-12.6532 10.9169,-14.4307 -9.61064,-2.70945 -19.0736,4.52953 -19.0736,14.4307 0,9.90237 9.46536,17.139 19.0736,14.4295 -6.29882,-1.77756 -10.9169,-7.5626 -10.9169,-14.4295z"/>
   <path id="_120566616" class="fil0" d="M238.637 208.664l-56.9445 0c-3.0437,0 -5.51103,2.46732 -5.51103,5.51103l0 3.01299 0 7.46339 67.9666 0 0 -7.46339 0 -3.01299c0,-3.0437 -2.46732,-5.51103 -5.51103,-5.51103l0 0z"/>
   <path id="_120566760" class="fil1" d="M184.753 214.175c0,-3.0437 2.46732,-5.51103 5.51103,-5.51103l-8.57127 0c-3.04252,0 -5.50985,2.46732 -5.50985,5.51103l0 3.01181 0 7.46339 8.57008 0 0 -7.46339 0 -3.01181z"/>
   <path id="_120567048" class="fil4" d="M247.208 223.36l-17.1437 0 -39.8008 0 -17.1437 0c-3.0437,0 -5.50985,2.46851 -5.50985,5.51103l0 3.01299c0,3.04252 2.46614,5.50985 5.50985,5.50985l17.1437 0 39.8008 0 17.1437 0c3.04252,0 5.50985,-2.46732 5.50985,-5.50985l0 -3.01299c0,-3.0437 -2.46732,-5.51103 -5.50985,-5.51103z"/>
   <path id="_120567192" class="fil5" d="M247.208 230.377l-17.1437 0 -39.8008 0 -17.1437 0c-2.33622,0 -4.32756,-1.4563 -5.12953,-3.50788 -0.243307,0.62126 -0.380315,1.29685 -0.380315,2.00315l0 3.01181c0,3.04252 2.46614,5.51103 5.50985,5.51103l17.1437 0 39.8008 0 17.1437 0c3.04252,0 5.50985,-2.46851 5.50985,-5.51103l0 -3.01181c0,-0.707481 -0.137008,-1.38189 -0.380315,-2.00315 -0.801969,2.05158 -2.79331,3.50788 -5.12953,3.50788z"/>
   <path id="_120567264" class="fil6" d="M311.918 150.013l-0.311811 0 -21.6756 -52.2957c5.30788,-6.38977 2.16378,-16.0725 -5.75315,-18.241l-57.3898 -15.7122c-1.19291,-2.65158 -2.99882,-4.97008 -5.24174,-6.7689l0 -8.28308c0,-6.27756 -5.10709,-11.3847 -11.3858,-11.3847 -6.27638,0 -11.3835,5.10709 -11.3835,11.3847l0 8.28308c-2.24291,1.79882 -4.05,4.11614 -5.24292,6.77008l-57.391 15.7122c-8.19686,2.24528 -11.1496,12.4004 -5.36575,18.6803l-21.4937 51.854c-5.55,0 -9.04961,4.23307 -9.04961,8.74016l0 3.01181c0,4.82008 3.92008,8.73898 8.74016,8.73898l2.14606 0c11.8169,20.0717 40.8508,20.0386 52.65,0l2.14843 0c4.8189,0 8.73898,-3.92008 8.73898,-8.73898l0 -3.01181c0,-4.49292 -3.48189,-8.74016 -9.05079,-8.74016l-20.4697 -49.389 53.6398 -14.6858 0 105.461 -1.03228 0c-4.51063,0 -8.1815,3.66969 -8.1815,8.1815 0,4.45158 -0.0519685,4.7504 0.186614,5.85237l-8.05985 0c-4.82008,0 -8.74016,3.92008 -8.74016,8.74016l0 5.96339c-4.74095,0.0909449 -8.57127,3.96851 -8.57127,8.7319l0 3.01181c0,4.8189 3.9189,8.74016 8.73898,8.74016l29.5099 0c1.78465,0 3.22795,-1.44567 3.22795,-3.22795 0,-1.78465 -1.44449,-3.22914 -3.22795,-3.22914l-29.5099 0c-1.25906,0 -2.28189,-1.02402 -2.28189,-2.28189l0 -3.01299c0,-1.25787 1.02284,-2.28307 2.28189,-2.28307l3.06142 0c2.70591,0 66.6603,0 71.0256,0 1.25787,0 2.28307,1.0252 2.28307,2.28307l0 3.01299c0,1.25787 -1.02402,2.28189 -2.28307,2.28189l-29.511 0c-1.78347,0 -3.22795,1.44567 -3.22795,3.22795 0,1.78347 1.44567,3.22795 3.22795,3.22795l29.511 0.0011811c4.8189,0 8.74016,-3.92008 8.74016,-8.74016l0 -3.01181c0,-4.76221 -3.83032,-8.64095 -8.57127,-8.7319l0 -5.96457c0,-4.8189 -3.92008,-8.74016 -8.74016,-8.74016l-8.06103 0.0011811c0.23504,-1.08898 0.186614,-1.3441 0.186614,-5.85237 0,-4.51063 -3.66969,-8.1815 -8.18268,-8.1815l-1.0311 0 0 -44.6551c0,-1.78465 -1.44567,-3.22914 -3.22795,-3.22914 -1.78347,0 -3.22914,1.44567 -3.22914,3.22914l0 44.6551 -9.85512 0 0 -102.639c3.10984,0.887008 6.68504,0.900001 9.85512,-0.0011811l0 42.9177c0,1.78347 1.44567,3.22795 3.22914,3.22795 1.78347,0 3.22795,-1.44567 3.22795,-3.22795l0 -45.7382 54.15 14.8264 -20.4106 49.2485c-5.55237,0 -9.04961,4.23425 -9.04961,8.74016l0 3.01181c0,4.8189 3.92126,8.73898 8.74016,8.73898l2.14725 0c11.8146,20.0681 40.8485,20.0433 52.6512,0l2.14606 0c4.8189,0 8.74016,-3.92008 8.74016,-8.73898l0 -3.01181c-0.0011811,-4.8189 -3.92126,-8.73898 -8.74016,-8.73898l-0.0011811 0zm-177.702 -43.2898l0 43.2886 -17.9421 0 17.9421 -43.2886zm-14.7791 64.2945l36.0166 0c-9.57166,10.7823 -26.4555,10.774 -36.0166,0zm46.4811 -14.5476c1.25787,0 2.28307,1.02284 2.28307,2.28189l0 3.01181c0,1.25906 -1.02402,2.28307 -2.28307,2.28307l-56.9445 -0.0011811c-1.25787,0 -2.28307,-1.02284 -2.28307,-2.28189l0 -3.01181c0,-1.25906 1.02402,-2.28189 2.28307,-2.28189 1.51772,0 53.1591,0 54.476,0 0,0 2.45315,0 2.46851,0zm-7.30158 -6.45709l-17.9433 0 0 -43.291 17.9433 43.291zm-19.0205 -54.6555c-1.20354,0.115748 -2.21457,-0.196063 -3.21378,-0.827953 -3.49961,-2.38465 -2.54646,-7.7256 1.46693,-8.8252l54.091 -14.8087c-0.0519685,3.24449 0.764174,6.56457 2.5063,9.5315 -56.5772,15.4913 -54.1382,14.8642 -54.8504,14.9303l0 0zm65.6374 -46.6453c0,-2.71772 2.21103,-4.92756 4.92756,-4.92756 2.71772,0 4.92756,2.21103 4.92756,4.92756l0 4.95118c-3.18189,-0.895276 -6.69685,-0.894095 -9.85512,0l0 -4.95118 0 0zm33.4004 163.176c1.25906,0 2.28307,1.02402 2.28307,2.28307l0 5.95512 -61.5083 0 0 -5.95512c0,-1.25906 1.02284,-2.28425 2.28189,-2.28425 2.81221,0.0011811 54.7725,0.0011811 56.9433,0.0011811l0 0zm-16.0571 -14.0327c0.950788,0 1.72441,0.773623 1.72441,1.72441l0 4.12677c0,0.951969 -0.773623,1.72559 -1.72441,1.72559l-24.8327 -0.0011811c-0.949607,0 -1.72441,-0.773623 -1.72441,-1.72441l0 -4.12677c0,-0.951969 0.773623,-1.72559 1.72441,-1.72559 2.96339,0.0011811 21.9295,0.0011811 24.8327,0.0011811zm-11.6528 -114.905c-4.56142,0.295276 -8.8004,-2.06575 -11.0055,-5.95985 -5.8689,-10.4067 6.0626,-22.3134 16.5177,-15.7264 9.66142,6.11811 5.7567,20.9823 -5.51339,21.6862l0.0011811 0zm75.7501 23.7721l17.9421 43.2898 -17.9421 0 0 -43.2898zm-60.7985 -26.2949c1.73976,-2.99528 2.55945,-6.25276 2.50748,-9.5315l54.0886 14.8087c2.62205,0.71693 4.16929,3.43347 3.45236,6.05433 -0.667323,2.4378 -3.11339,3.92717 -5.13898,3.52441 -0.283465,-0.0578741 -0.56693,-0.0755906 -0.844489,-0.0578741 -0.337796,-0.0850394 -53.4992,-14.6433 -54.065,-14.798zm54.3414 26.2925l0 43.2922 -17.9433 0 17.9433 -43.2922zm-14.7803 64.2969l36.0177 0c-9.57166,10.7835 -26.4555,10.774 -36.0177,0zm48.763 -9.25394c0,1.25906 -1.02402,2.28189 -2.28189,2.28189l-56.9445 0c-1.25906,0 -2.28307,-1.02284 -2.28307,-2.28189l0 -3.01181c0,-1.25906 1.02402,-2.28189 2.28307,-2.28189 1.51654,0 53.1591,0 54.476,0 0.00354331,-0.0011811 0.00708662,-0.0011811 0.00826772,0l2.46142 0c1.25787,0 2.28189,1.02284 2.28189,2.28189l-0.0011811 3.01181 0 0z"/>
   <g>
   </g>
   <g>
   </g>
   <g>
   </g>
   <g>
   </g>
   <g>
   </g>
   <g>
   </g>
   <g>
   </g>
   <g>
   </g>
   <g>
   </g>
   <g>
   </g>
   <g>
   </g>
   <g>
   </g>
   <g>
   </g>
   <g>
   </g>
   <g>
   </g>
  </g>
  <path class="fil7" d="M417.918 194.674l-63.8752 0 0 -19.3252 17.8748 0 0 -70.3997 -17.8748 0 0 -19.3252 63.8752 0 0 19.3252 -17.8748 0 0 70.3997 17.8748 0 0 19.3252zm103.4 0l-26.3492 0 0 -9.0756c-4.9004,3.7004 -9.35079,6.5256 -13.4008,8.45079 -4.07481,1.9252 -8.89961,2.89961 -14.524,2.89961 -9.0756,0 -16.076,-2.62441 -20.9752,-7.84961 -4.9004,-5.2252 -7.35001,-12.9248 -7.35001,-23.1248l0 -53.55 26.4992 0 0 40.8c0,4.14922 0.15,7.59922 0.400394,10.35 0.275197,2.77441 0.900001,5.04922 1.87559,6.84922 0.924804,1.8248 2.32441,3.1252 4.22481,3.95079 1.87441,0.849213 4.5,1.24961 7.84961,1.24961 2.25,0 4.7504,-0.400394 7.4752,-1.24961 2.74961,-0.825591 5.3752,-2.0504 7.9252,-3.65079l0 -58.2993 26.3492 0 0 82.2497zm84.5256 -57.1252l-2.3504 0c-1.12559,-0.400394 -2.92559,-0.700394 -5.42481,-0.875197 -2.47559,-0.199606 -4.55079,-0.3 -6.22559,-0.3 -3.75,0 -7.07481,0.250394 -9.94961,0.725197 -2.87481,0.499607 -5.9752,1.3252 -9.30001,2.5004l0 55.0748 -26.3752 0 0 -82.2497 26.3752 0 0 12.0744c5.8004,-4.97481 10.8496,-8.27481 15.15,-9.92481 4.3004,-1.6252 8.25001,-2.44961 11.8748,-2.44961 0.924804,0 1.9748,0.0248032 3.15,0.0744095 1.1752,0.0496063 2.2004,0.125197 3.07559,0.225591l0 25.1244zm41.2996 57.1252l-26.3752 0 0 -82.2497 26.3752 0 0 82.2497zm0.725197 -93.9757l-27.8256 0 0 -19.9996 27.8256 0 0 19.9996zm95.6505 67.9004c0,8.5004 -3.80079,15.3496 -11.426,20.55 -7.59922,5.2004 -18.0248,7.80001 -31.2744,7.80001 -7.3252,0 -13.95,-0.699213 -19.9004,-2.04921 -5.9752,-1.37599 -10.7492,-2.87599 -14.3752,-4.55079l0 -21.6744 2.42599 0c1.32402,0.924804 2.85,1.95 4.57441,3.04961 1.72559,1.0748 4.2,2.2748 7.37481,3.5504 2.72481,1.12441 5.8252,2.07402 9.30001,2.87481 3.45,0.82441 7.1752,1.2248 11.1248,1.2248 5.17559,0 9.00001,-0.575197 11.5004,-1.72559 2.47559,-1.14921 3.7252,-2.85 3.7252,-5.1 0,-1.99961 -0.725197,-3.45 -2.2004,-4.35 -1.44921,-0.900001 -4.24961,-1.77402 -8.34922,-2.59961 -1.95,-0.45 -4.6004,-0.924804 -7.9252,-1.42441 -3.35079,-0.525591 -6.4004,-1.15039 -9.1252,-1.87559 -7.4752,-1.95 -13.0252,-4.99961 -16.6252,-9.1252 -3.62481,-4.12441 -5.42481,-9.24922 -5.42481,-15.3992 0,-7.9252 3.75,-14.5004 11.25,-19.7504 7.4752,-5.25 17.7248,-7.8756 30.7252,-7.8756 6.15,0 12.0496,0.625985 17.6752,1.87559 5.64922,1.24961 10.05,2.5748 13.2248,4.0004l0 20.7992 -2.2748 0c-3.9,-2.7 -8.3504,-4.87441 -13.35,-6.5752 -5.02559,-1.6748 -10.076,-2.52402 -15.2008,-2.52402 -4.24961,0 -7.82481,0.6 -10.7492,1.77402 -2.90079,1.15039 -4.35,2.8252 -4.35,4.97599 0,1.95 0.649607,3.42402 1.9748,4.47402 1.3252,1.0252 4.42441,2.0504 9.30001,3.07559 2.7,0.52441 5.57481,1.05 8.6752,1.57441 3.09921,0.500788 6.22441,1.15039 9.34961,1.9252 6.92481,1.8 12.0496,4.65 15.3744,8.5252 3.32599,3.9 4.97599,8.74961 4.97599,14.55zm68.2737 28.2c-8.10001,0 -15.574,-1.2 -22.4492,-3.6 -6.8504,-2.3752 -12.75,-5.9504 -17.6752,-10.6748 -4.9252,-4.7504 -8.74961,-10.65 -11.4756,-17.7248 -2.7,-7.10079 -4.05,-15.2752 -4.05,-24.5504 0,-8.62442 1.30039,-16.4752 3.8752,-23.5004 2.60079,-7.02402 6.35079,-13.0748 11.2748,-18.0992 4.7504,-4.82481 10.6252,-8.57481 17.6256,-11.2004 7.0004,-2.6504 14.6504,-3.94961 22.95,-3.94961 4.6004,0 8.72481,0.249213 12.4252,0.750001 3.67441,0.52441 7.09961,1.2 10.2248,2.02441 3.2504,0.924804 6.22441,1.9748 8.87481,3.1252 2.6752,1.12559 4.99961,2.2004 7.0004,3.17481l0 26.4508 -3.22559 0c-1.35,-1.1752 -3.07441,-2.57599 -5.14961,-4.1752 -2.0752,-1.6252 -4.42559,-3.20079 -7.07481,-4.7752 -2.6752,-1.54961 -5.60079,-2.87481 -8.72481,-3.94961 -3.1252,-1.07598 -6.45,-1.60039 -10.0252,-1.60039 -3.95079,0 -7.70079,0.6 -11.2748,1.84961 -3.5752,1.25079 -6.8504,3.32481 -9.90001,6.20079 -2.87599,2.77441 -5.2004,6.47481 -6.9756,11.0492 -1.8,4.6004 -2.6752,10.1504 -2.6752,16.7008 0,6.84922 0.950788,12.5492 2.87481,17.1496 1.95,4.57441 4.37599,8.2004 7.3004,10.8248 2.9752,2.7 6.3,4.6004 9.94961,5.74961 3.67559,1.15039 7.2756,1.72559 10.8508,1.72559 3.4252,0 6.79961,-0.499607 10.1492,-1.5248 3.35079,-1.0252 6.4252,-2.4248 9.2504,-4.1752 2.4,-1.42559 4.6252,-2.9504 6.6756,-4.54961 2.04921,-1.60039 3.72402,-3 5.04922,-4.1752l2.92559 0 0 26.0752c-2.72481,1.2248 -5.3504,2.37402 -7.82481,3.45 -2.5004,1.0748 -5.1,1.99961 -7.85079,2.77441 -3.54922,1.0252 -6.9,1.8 -10.0252,2.3504 -3.12402,0.52441 -7.42441,0.799607 -12.9,0.799607zm141.876 -43.2248c0,13.5248 -3.92599,24.1996 -11.8252,31.9748 -7.8756,7.80001 -18.9508,11.7 -33.2008,11.7 -14.2748,0 -25.35,-3.9 -33.2244,-11.7 -7.8756,-7.7752 -11.8252,-18.45 -11.8252,-31.9748 0,-13.6004 3.97559,-24.3 11.8996,-32.0752 7.9252,-7.7504 18.9756,-11.6504 33.15,-11.6504 14.3504,0 25.4504,3.92599 33.2752,11.726 7.85079,7.82481 11.7508,18.4748 11.7508,31.9996zm-32.4508 19.9996c1.72559,-2.1 3,-4.6252 3.8504,-7.57441 0.850394,-2.9504 1.30039,-7.05 1.30039,-12.2752 0,-4.82481 -0.45,-8.87481 -1.3252,-12.15 -0.875197,-3.2752 -2.1,-5.87481 -3.67559,-7.84961 -1.54961,-2.00079 -3.4252,-3.4004 -5.62441,-4.22599 -2.2004,-0.849213 -4.57559,-1.24961 -7.10079,-1.24961 -2.55,0 -4.8,0.324803 -6.77481,1.0252 -1.99961,0.67441 -3.8752,2.0504 -5.6752,4.09961 -1.62402,1.9004 -2.89961,4.52481 -3.84922,7.82481 -0.950788,3.32599 -1.42559,7.50001 -1.42559,12.5256 0,4.5 0.400394,8.40001 1.2248,11.7 0.850394,3.2752 2.0504,5.92441 3.67559,7.9252 1.54961,1.9252 3.4252,3.3 5.59961,4.1752 2.17559,0.900001 4.65,1.32402 7.4256,1.32402 2.4,0 4.67481,-0.399213 6.84922,-1.2 2.17559,-0.799607 4.0252,-2.17441 5.5252,-4.07481zm133.976 21.1004l-26.5252 0 0 -40.8c0,-3.32481 -0.174803,-6.62481 -0.499607,-9.92481 -0.350788,-3.3 -0.924804,-5.72481 -1.7752,-7.2756 -0.975591,-1.8248 -2.4,-3.1252 -4.27559,-3.97441 -1.87441,-0.825591 -4.5,-1.2248 -7.87441,-1.2248 -2.4,0 -4.82481,0.37441 -7.2756,1.17402 -2.47441,0.775985 -5.14961,2.02559 -8.02441,3.7252l0 58.3004 -26.3752 0 0 -82.2497 26.3752 0 0 9.07442c4.67481,-3.64961 9.17481,-6.47481 13.5,-8.42481 4.3252,-1.95 9.1252,-2.92559 14.4,-2.92559 8.87481,0 15.8244,2.60079 20.8252,7.7752 5.02441,5.17559 7.52481,12.9 7.52481,23.2004l0 53.55zm95.7001 -26.0752c0,8.5004 -3.80079,15.3496 -11.426,20.55 -7.59922,5.2004 -18.0248,7.80001 -31.2744,7.80001 -7.3252,0 -13.95,-0.699213 -19.9004,-2.04921 -5.9752,-1.37599 -10.7492,-2.87599 -14.3752,-4.55079l0 -21.6744 2.42599 0c1.32402,0.924804 2.85,1.95 4.57441,3.04961 1.72559,1.0748 4.2,2.2748 7.37481,3.5504 2.72481,1.12441 5.8252,2.07402 9.30001,2.87481 3.45,0.82441 7.1752,1.2248 11.1248,1.2248 5.17559,0 9.00001,-0.575197 11.5004,-1.72559 2.47559,-1.14921 3.7252,-2.85 3.7252,-5.1 0,-1.99961 -0.725197,-3.45 -2.2004,-4.35 -1.44921,-0.900001 -4.24961,-1.77402 -8.34922,-2.59961 -1.95,-0.45 -4.6004,-0.924804 -7.9252,-1.42441 -3.35079,-0.525591 -6.4004,-1.15039 -9.1252,-1.87559 -7.4752,-1.95 -13.0252,-4.99961 -16.6252,-9.1252 -3.62481,-4.12441 -5.42481,-9.24922 -5.42481,-15.3992 0,-7.9252 3.75,-14.5004 11.25,-19.7504 7.4752,-5.25 17.7248,-7.8756 30.7252,-7.8756 6.15,0 12.0496,0.625985 17.6752,1.87559 5.64922,1.24961 10.05,2.5748 13.2248,4.0004l0 20.7992 -2.2748 0c-3.9,-2.7 -8.3504,-4.87441 -13.35,-6.5752 -5.02559,-1.6748 -10.076,-2.52402 -15.2008,-2.52402 -4.24961,0 -7.82481,0.6 -10.7492,1.77402 -2.90079,1.15039 -4.35,2.8252 -4.35,4.97599 0,1.95 0.649607,3.42402 1.9748,4.47402 1.3252,1.0252 4.42441,2.0504 9.30001,3.07559 2.7,0.52441 5.57481,1.05 8.6752,1.57441 3.09921,0.500788 6.22441,1.15039 9.34961,1.9252 6.92481,1.8 12.0496,4.65 15.3744,8.5252 3.32599,3.9 4.97599,8.74961 4.97599,14.55zm99.4737 26.0752l-26.3492 0 0 -9.0756c-4.9004,3.7004 -9.35079,6.5256 -13.4008,8.45079 -4.07481,1.9252 -8.89961,2.89961 -14.524,2.89961 -9.0756,0 -16.076,-2.62441 -20.9752,-7.84961 -4.9004,-5.2252 -7.35001,-12.9248 -7.35001,-23.1248l0 -53.55 26.4992 0 0 40.8c0,4.14922 0.15,7.59922 0.400394,10.35 0.275197,2.77441 0.900001,5.04922 1.87559,6.84922 0.924804,1.8248 2.32441,3.1252 4.22481,3.95079 1.87441,0.849213 4.5,1.24961 7.84961,1.24961 2.25,0 4.7504,-0.400394 7.4752,-1.24961 2.74961,-0.825591 5.3752,-2.0504 7.9252,-3.65079l0 -58.2993 26.3492 0 0 82.2497zm51.2752 0l-26.3752 0 0 -113.975 26.3752 0 0 113.975zm77.5004 -0.725197c-2.85,0.725197 -5.85,1.30039 -9.02481,1.72559 -3.17599,0.399213 -7.05,0.6 -11.6504,0.6 -10.2496,0 -17.8748,-2.0752 -22.8756,-6.22559 -4.99961,-4.1504 -7.50001,-11.25 -7.50001,-21.3l0 -38.4496 -10.8496 0 0 -17.8748 10.8496 0 0 -23.5004 26.3504 0 0 23.5004 24.7004 0 0 17.8748 -24.7004 0 0 29.1496c0,2.87481 0.0248032,5.4 0.0755906,7.54961 0.0496063,2.15079 0.45,4.07599 1.17402,5.77559 0.675591,1.69961 1.9004,3.07441 3.62599,4.07481 1.72441,1.00039 4.27441,1.5 7.57441,1.5 1.3748,0 3.17481,-0.3 5.4,-0.875197 2.2252,-0.6 3.77481,-1.12441 4.65,-1.6252l2.2004 0 0 18.1004zm65.5252 -20.7248l0 -17.1496c-3.5504,0.3 -7.42441,0.699213 -11.5748,1.2 -4.1504,0.52441 -7.3004,1.12441 -9.45001,1.8 -2.62559,0.82441 -4.65,2.04921 -6.02481,3.62481 -1.40079,1.59921 -2.1,3.67441 -2.1,6.2752 0,1.69961 0.15,3.09921 0.45,4.17402 0.3,1.07598 1.0252,2.1 2.19921,3.07559 1.12559,0.97441 2.45079,1.69961 4.0252,2.14961 1.55079,0.474803 4.0004,0.700394 7.3252,0.700394 2.62559,0 5.29961,-0.550394 8.0256,-1.60039 2.7,-1.0748 5.07402,-2.49921 7.12441,-4.24961zm0 12.7252c-1.39961,1.0748 -3.17481,2.3752 -5.27481,3.9 -2.1,1.5 -4.07481,2.7 -5.92559,3.5752 -2.59961,1.17402 -5.27481,2.04921 -8.04922,2.59961 -2.8004,0.575197 -5.85,0.850394 -9.15001,0.850394 -7.82481,0 -14.3752,-2.42599 -19.65,-7.25079 -5.27481,-4.84961 -7.9004,-11.0244 -7.9004,-18.5244 0,-6.02481 1.35,-10.9252 4.0252,-14.7248 2.7,-3.82559 6.49961,-6.8256 11.4248,-9.02599 4.87559,-2.17441 10.95,-3.75 18.1748,-4.67481 7.22481,-0.924804 14.7248,-1.6252 22.4752,-2.04921l0 -0.45c0,-4.52599 -1.84961,-7.67599 -5.57481,-9.4004 -3.7004,-1.72559 -9.17481,-2.59961 -16.3996,-2.59961 -4.35,0 -8.9752,0.774804 -13.9004,2.29961 -4.95,1.54961 -8.4756,2.72481 -10.6252,3.5504l-2.4248 0 0 -19.8508c2.77441,-0.725197 7.3252,-1.59921 13.6004,-2.59961 6.24922,-1.00039 12.5492,-1.5 18.8492,-1.5 15,0 25.8248,2.29961 32.4756,6.92481 6.67441,4.6252 9.99922,11.85 9.99922,21.7252l0 55.95 -26.1496 0 0 -8.72481zm121.876 -17.3504c0,8.5004 -3.80079,15.3496 -11.426,20.55 -7.59922,5.2004 -18.0248,7.80001 -31.2744,7.80001 -7.3252,0 -13.95,-0.699213 -19.9004,-2.04921 -5.9752,-1.37599 -10.7492,-2.87599 -14.3752,-4.55079l0 -21.6744 2.42599 0c1.32402,0.924804 2.85,1.95 4.57441,3.04961 1.72559,1.0748 4.2,2.2748 7.37481,3.5504 2.72481,1.12441 5.8252,2.07402 9.30001,2.87481 3.45,0.82441 7.1752,1.2248 11.1248,1.2248 5.17559,0 9.00001,-0.575197 11.5004,-1.72559 2.47559,-1.14921 3.7252,-2.85 3.7252,-5.1 0,-1.99961 -0.725197,-3.45 -2.2004,-4.35 -1.44921,-0.900001 -4.24961,-1.77402 -8.34922,-2.59961 -1.95,-0.45 -4.6004,-0.924804 -7.9252,-1.42441 -3.35079,-0.525591 -6.4004,-1.15039 -9.1252,-1.87559 -7.4752,-1.95 -13.0252,-4.99961 -16.6252,-9.1252 -3.62481,-4.12441 -5.42481,-9.24922 -5.42481,-15.3992 0,-7.9252 3.75,-14.5004 11.25,-19.7504 7.4752,-5.25 17.7248,-7.8756 30.7252,-7.8756 6.15,0 12.0496,0.625985 17.6752,1.87559 5.64922,1.24961 10.05,2.5748 13.2248,4.0004l0 20.7992 -2.2748 0c-3.9,-2.7 -8.3504,-4.87441 -13.35,-6.5752 -5.02559,-1.6748 -10.076,-2.52402 -15.2008,-2.52402 -4.24961,0 -7.82481,0.6 -10.7492,1.77402 -2.90079,1.15039 -4.35,2.8252 -4.35,4.97599 0,1.95 0.649607,3.42402 1.9748,4.47402 1.3252,1.0252 4.42441,2.0504 9.30001,3.07559 2.7,0.52441 5.57481,1.05 8.6752,1.57441 3.09921,0.500788 6.22441,1.15039 9.34961,1.9252 6.92481,1.8 12.0496,4.65 15.3744,8.5252 3.32599,3.9 4.97599,8.74961 4.97599,14.55zm45.874 26.0752l-27.4004 0 0 -28.7752 27.4004 0 0 28.7752zm68.7 2.2004c-7.1752,0 -13.7256,-0.850394 -19.6748,-2.57599 -5.92559,-1.69961 -11.1,-4.32402 -15.476,-7.89922 -4.35,-3.5752 -7.72441,-8.0504 -10.1244,-13.4752 -2.3752,-5.42481 -3.5752,-11.7756 -3.5752,-19.05 0,-7.65001 1.27559,-14.2748 3.8504,-19.8496 2.55,-5.55 6.1252,-10.1752 10.7244,-13.8508 4.4504,-3.45 9.5752,-6 15.3756,-7.59922 5.79922,-1.6252 11.85,-2.42599 18.0992,-2.42599 5.60079,0 10.7752,0.625985 15.5256,1.82599 4.72441,1.2248 9.15001,2.82402 13.2496,4.77402l0 22.4752 -3.7252 0c-1.02402,-0.875197 -2.2748,-1.89921 -3.69922,-3.07441 -1.45039,-1.1752 -3.22559,-2.32559 -5.32559,-3.45 -1.99961,-1.05 -4.2,-1.95 -6.5752,-2.6504 -2.4,-0.725197 -5.17441,-1.0748 -8.34922,-1.0748 -7.05,0 -12.45,2.2252 -16.2248,6.7004 -3.80079,4.47402 -5.6752,10.5496 -5.6752,18.1996 0,7.9252 1.9252,13.9252 5.8252,18.0248 3.87402,4.09961 9.37442,6.15 16.5,6.15 3.32481,0 6.32481,-0.37441 8.97402,-1.12441 2.6752,-0.775985 4.87559,-1.65 6.62599,-2.6752 1.6748,-0.975591 3.12402,-2.00079 4.39961,-3.07559 1.27441,-1.0748 2.44961,-2.1248 3.52441,-3.15l3.7252 0 0 22.4752c-4.14922,1.95 -8.47442,3.49961 -12.9992,4.65 -4.52599,1.15039 -9.50079,1.72559 -14.9752,1.72559zm129.475 -43.3004c0,13.5248 -3.92599,24.1996 -11.8252,31.9748 -7.8756,7.80001 -18.9508,11.7 -33.2008,11.7 -14.2748,0 -25.35,-3.9 -33.2244,-11.7 -7.8756,-7.7752 -11.8252,-18.45 -11.8252,-31.9748 0,-13.6004 3.97559,-24.3 11.8996,-32.0752 7.9252,-7.7504 18.9756,-11.6504 33.15,-11.6504 14.3504,0 25.4504,3.92599 33.2752,11.726 7.85079,7.82481 11.7508,18.4748 11.7508,31.9996zm-32.4508 19.9996c1.72559,-2.1 3,-4.6252 3.8504,-7.57441 0.850394,-2.9504 1.30039,-7.05 1.30039,-12.2752 0,-4.82481 -0.45,-8.87481 -1.3252,-12.15 -0.875197,-3.2752 -2.1,-5.87481 -3.67559,-7.84961 -1.54961,-2.00079 -3.4252,-3.4004 -5.62441,-4.22599 -2.2004,-0.849213 -4.57559,-1.24961 -7.10079,-1.24961 -2.55,0 -4.8,0.324803 -6.77481,1.0252 -1.99961,0.67441 -3.8752,2.0504 -5.6752,4.09961 -1.62402,1.9004 -2.89961,4.52481 -3.84922,7.82481 -0.950788,3.32599 -1.42559,7.50001 -1.42559,12.5256 0,4.5 0.400394,8.40001 1.2248,11.7 0.850394,3.2752 2.0504,5.92441 3.67559,7.9252 1.54961,1.9252 3.4252,3.3 5.59961,4.1752 2.17559,0.900001 4.65,1.32402 7.4256,1.32402 2.4,0 4.67481,-0.399213 6.84922,-1.2 2.17559,-0.799607 4.0252,-2.17441 5.5252,-4.07481zm131.776 -37.2l0 58.3004 -26.5252 0 0 -41.1c0,-4.0004 -0.0992127,-7.39961 -0.274016,-10.2 -0.200788,-2.8252 -0.750001,-5.1 -1.6252,-6.8504 -0.875197,-1.74921 -2.2004,-3.04961 -4.0004,-3.84922 -1.7752,-0.800788 -4.27441,-1.2 -7.50001,-1.2 -2.5748,0 -5.1,0.52441 -7.54961,1.57441 -2.4248,1.05 -4.6252,2.14961 -6.5752,3.32481l0 58.3004 -26.3752 0 0 -82.2497 26.3752 0 0 9.07442c4.52481,-3.5504 8.87481,-6.34961 13.0252,-8.3504 4.14922,-1.99961 8.74961,-3 13.7752,-3 5.42481,0 10.2,1.2 14.3492,3.62599 4.1504,2.4248 7.40079,5.97402 9.75001,10.65 5.27481,-4.42559 10.4008,-7.9252 15.3756,-10.4752 4.97481,-2.5252 9.8752,-3.80079 14.6492,-3.80079 8.90079,0 15.6508,2.6752 20.25,7.97599 4.6252,5.32441 6.92599,12.9992 6.92599,22.9996l0 53.55 -26.5252 0 0 -41.1c0,-4.05 -0.0755906,-7.4504 -0.250394,-10.2496 -0.174803,-2.77559 -0.700394,-5.0504 -1.57441,-6.80079 -0.825591,-1.74921 -2.15079,-3.04961 -3.95079,-3.84922 -1.8,-0.800788 -4.35,-1.2 -7.6252,-1.2 -2.19921,0 -4.35,0.37441 -6.45,1.12441 -2.1,0.750001 -4.65,2.02559 -7.67481,3.77481zm106.65 58.3004l-27.4004 0 0 -28.7752 27.4004 0 0 28.7752zm75.6497 -21.45l0 -17.1496c-3.5504,0.3 -7.42441,0.699213 -11.5748,1.2 -4.1504,0.52441 -7.3004,1.12441 -9.45001,1.8 -2.62559,0.82441 -4.65,2.04921 -6.02481,3.62481 -1.40079,1.59921 -2.1,3.67441 -2.1,6.2752 0,1.69961 0.15,3.09921 0.45,4.17402 0.3,1.07598 1.0252,2.1 2.19921,3.07559 1.12559,0.97441 2.45079,1.69961 4.0252,2.14961 1.55079,0.474803 4.0004,0.700394 7.3252,0.700394 2.62559,0 5.29961,-0.550394 8.0256,-1.60039 2.7,-1.0748 5.07402,-2.49921 7.12441,-4.24961zm0 12.7252c-1.39961,1.0748 -3.17481,2.3752 -5.27481,3.9 -2.1,1.5 -4.07481,2.7 -5.92559,3.5752 -2.59961,1.17402 -5.27481,2.04921 -8.04922,2.59961 -2.8004,0.575197 -5.85,0.850394 -9.15001,0.850394 -7.82481,0 -14.3752,-2.42599 -19.65,-7.25079 -5.27481,-4.84961 -7.9004,-11.0244 -7.9004,-18.5244 0,-6.02481 1.35,-10.9252 4.0252,-14.7248 2.7,-3.82559 6.49961,-6.8256 11.4248,-9.02599 4.87559,-2.17441 10.95,-3.75 18.1748,-4.67481 7.22481,-0.924804 14.7248,-1.6252 22.4752,-2.04921l0 -0.45c0,-4.52599 -1.84961,-7.67599 -5.57481,-9.4004 -3.7004,-1.72559 -9.17481,-2.59961 -16.3996,-2.59961 -4.35,0 -8.9752,0.774804 -13.9004,2.29961 -4.95,1.54961 -8.4756,2.72481 -10.6252,3.5504l-2.4248 0 0 -19.8508c2.77441,-0.725197 7.3252,-1.59921 13.6004,-2.59961 6.24922,-1.00039 12.5492,-1.5 18.8492,-1.5 15,0 25.8248,2.29961 32.4756,6.92481 6.67441,4.6252 9.99922,11.85 9.99922,21.7252l0 55.95 -26.1496 0 0 -8.72481zm110.026 -48.4004l-2.3504 0c-1.12559,-0.400394 -2.92559,-0.700394 -5.42481,-0.875197 -2.47559,-0.199606 -4.55079,-0.3 -6.22559,-0.3 -3.75,0 -7.07481,0.250394 -9.94961,0.725197 -2.87481,0.499607 -5.9752,1.3252 -9.30001,2.5004l0 55.0748 -26.3752 0 0 -82.2497 26.3752 0 0 12.0744c5.8004,-4.97481 10.8496,-8.27481 15.15,-9.92481 4.3004,-1.6252 8.25001,-2.44961 11.8748,-2.44961 0.924804,0 1.9748,0.0248032 3.15,0.0744095 1.1752,0.0496063 2.2004,0.125197 3.07559,0.225591l0 25.1244z"/>
 </g>
</svg>
